<svg aria-hidden="true" style="position: absolute; width: 0; height: 0; overflow: hidden;" version="1.1" xmlns="http://www.w3.org/2000/svg" xmlns:xlink="http://www.w3.org/1999/xlink">
<defs>
<symbol id="close-black" viewBox="0 0 32 32">
<path d="M26.667 7.303l-1.97-1.97-7.808 7.808-7.808-7.808-1.97 1.97 7.808 7.808-7.808 7.808 1.97 1.97 7.808-7.808 7.808 7.808 1.97-1.97-7.808-7.808 7.808-7.808z"></path>
</symbol>
<symbol id="brand" viewBox="0 0 40 32">
<path d="M3.055 26.742c0.156 0.194 0.24 0.438 0.236 0.688 0.008 0.163-0.021 0.326-0.084 0.476s-0.159 0.285-0.281 0.393c-0.304 0.231-0.681 0.343-1.061 0.317h-1.865v-4.361h1.827c0.361-0.024 0.718 0.078 1.012 0.29 0.118 0.099 0.211 0.224 0.273 0.366s0.089 0.296 0.081 0.45c0.011 0.241-0.065 0.477-0.212 0.667-0.142 0.173-0.338 0.293-0.556 0.341 0.247 0.045 0.471 0.177 0.63 0.373zM0.868 26.084h0.781c0.177 0.013 0.354-0.038 0.496-0.145 0.059-0.053 0.104-0.12 0.133-0.193s0.041-0.153 0.034-0.233c0.006-0.079-0.006-0.158-0.035-0.232s-0.073-0.14-0.13-0.194c-0.147-0.11-0.329-0.162-0.511-0.147h-0.768v1.144zM2.222 27.756c0.063-0.055 0.112-0.123 0.144-0.2s0.046-0.16 0.041-0.243c0.005-0.084-0.010-0.168-0.042-0.246s-0.083-0.147-0.146-0.202c-0.153-0.114-0.341-0.17-0.53-0.158h-0.819v1.199h0.83c0.187 0.011 0.372-0.043 0.524-0.151z"></path>
<path d="M6.79 28.617l-1.016-1.704h-0.382v1.704h-0.874v-4.361h1.655c0.417-0.029 0.83 0.104 1.152 0.371 0.231 0.237 0.371 0.549 0.393 0.879s-0.073 0.659-0.27 0.925c-0.204 0.235-0.483 0.391-0.789 0.443l1.082 1.743h-0.951zM5.392 26.318h0.715c0.497 0 0.745-0.22 0.745-0.66 0.005-0.090-0.008-0.18-0.040-0.264s-0.080-0.161-0.143-0.226c-0.157-0.131-0.359-0.195-0.562-0.177h-0.724l0.008 1.327z"></path>
<path d="M11.568 27.739h-1.742l-0.308 0.878h-0.917l1.6-4.312h0.991l1.593 4.312h-0.917l-0.301-0.878zM11.335 27.079l-0.637-1.841-0.637 1.841h1.273z"></path>
<path d="M17.55 28.617h-0.868l-1.946-2.965v2.965h-0.866v-4.361h0.866l1.946 2.983v-2.983h0.868v4.361z"></path>
<path d="M22.502 27.573c-0.179 0.329-0.453 0.597-0.785 0.769-0.378 0.192-0.797 0.286-1.22 0.275h-1.545v-4.361h1.545c0.422-0.011 0.841 0.081 1.22 0.268 0.332 0.168 0.606 0.433 0.785 0.761 0.179 0.355 0.272 0.747 0.272 1.144s-0.093 0.789-0.272 1.144zM21.509 27.469c0.248-0.29 0.384-0.659 0.384-1.041s-0.136-0.751-0.384-1.041c-0.299-0.262-0.69-0.396-1.086-0.371h-0.603v2.823h0.603c0.397 0.025 0.787-0.108 1.086-0.371z"></path>
<path d="M12.111 0c0 0 11.201 4.246 10.963 10.39v10.392c0 0-11.193-4.248-10.959-10.392l-0.004-10.39z"></path>
<path d="M33.054 18.349c2.115-1.462 4.562-2.367 7.117-2.633v-3.253c-2.943 1.139-5.44 3.204-7.117 5.886z"></path>
<path d="M31.783 19.329c1.731-3.5 4.733-6.202 8.388-7.548v-9.374c0 0-15.952 6.048-15.614 14.797v14.795c0 0 0.711-0.27 1.829-0.778 0-0.473 0-0.95 0.051-1.43 0.33-4.062 2.253-7.826 5.347-10.464z"></path>
<path d="M30.266 24.825c0.084-1.026 0.271-2.041 0.558-3.029-1.926 2.279-3.093 5.106-3.335 8.085-0.023 0.281-0.036 0.562-0.042 0.852 0.906-0.437 1.96-0.982 3.068-1.623-0.283-1.409-0.366-2.851-0.248-4.284z"></path>
<path d="M30.9 24.878c-0.106 1.296-0.040 2.601 0.197 3.879 4.358-2.618 9.255-6.664 9.067-11.553v-0.426c-3.114 0.35-6.027 1.716-8.292 3.89-0.53 1.347-0.858 2.766-0.972 4.21z"></path>
</symbol>
<symbol id="company-tagline-here" viewBox="0 0 25 32">
<path d="M10.447 1.806h0.084c0.156 0 0.324 0.015 0.49 0.030 0.734 0.052 1.463 0.162 2.18 0.329v-1.762c-0.652-0.172-1.42-0.299-2.207-0.356l-0.042-0.002-0.91-0.044h-0.263c-1.607 0.006-3.161 0.218-4.642 0.611l0.128-0.029c-1.68 0.418-3.292 1.075-4.79 1.948v17.47c1.312-0.729 2.832-1.338 4.431-1.749l0.135-0.029c1.123-0.3 2.434-0.51 3.78-0.586l0.052-0.002h0.052l0.655-0.018v-1.785c-1.78 0.024-3.493 0.264-5.129 0.695l0.147-0.033-1.731 0.513-0.623 0.211v-13.627l0.266-0.123c1.89-0.92 4.095-1.516 6.423-1.655l0.048-0.002c0.018-0.001 0.037-0.001 0.062 0 0.221-0.012 0.48-0.019 0.74-0.019h0.28l0.388 0.014zM14.831 3.651c-0.005 0-0.011 0-0.017 0-0.418 0-0.832-0.016-1.242-0.046l0.055 0.003-1.401-0.167-0.814-0.164v17.274c1.12 0.277 2.277 0.412 3.425 0.404 1.523-0.006 3.040-0.201 4.514-0.581 1.68-0.42 3.294-1.076 4.792-1.948v-17.163c-1.442 0.783-2.975 1.381-4.564 1.781-1.423 0.381-3.057 0.602-4.742 0.609h-0.004zM21.738 3.95l0.623-0.209v13.631l-0.266 0.123c-0.903 0.442-1.962 0.834-3.065 1.118l-0.119 0.026c-1.221 0.329-2.623 0.521-4.070 0.527h-0.004c-0.003 0-0.007 0-0.011 0-0.424 0-0.843-0.019-1.257-0.056l0.054 0.004-0.426-0.037v-14.013l0.497 0.033 1.141 0.034c1.841-0.007 3.622-0.248 5.32-0.696l-0.147 0.033 1.731-0.518zM1.684 25.977c-0.087-0.091-0.193-0.163-0.311-0.212l-0.006-0.002c-0.119-0.048-0.247-0.071-0.369-0.066-0.005-0-0.010-0-0.015-0-0.139 0-0.271 0.028-0.391 0.078l0.007-0.003c-0.121 0.049-0.225 0.118-0.311 0.205v0c-0.086 0.087-0.154 0.191-0.199 0.308l-0.002 0.006c-0.045 0.111-0.071 0.239-0.071 0.374 0 0.004 0 0.009 0 0.013v-0.001 2.335c-0 0.011-0.001 0.024-0.001 0.037 0 0.16 0.034 0.311 0.095 0.448l-0.003-0.007c0.062 0.119 0.135 0.226 0.234 0.308 0.089 0.076 0.197 0.133 0.315 0.165l0.006 0.001c0.104 0.030 0.224 0.048 0.348 0.049h0.001c0.003 0 0.006 0 0.009 0 0.134 0 0.26-0.030 0.373-0.084l-0.005 0.002c0.121-0.054 0.225-0.127 0.311-0.216l0-0c0.084-0.088 0.153-0.192 0.201-0.307l0.002-0.007c0.047-0.108 0.074-0.234 0.074-0.367 0-0.002 0-0.004-0-0.006v0-0.262h-0.616v0.208c0 0.004 0 0.009 0 0.014 0 0.070-0.013 0.136-0.037 0.198l0.001-0.004c-0.021 0.052-0.051 0.095-0.089 0.132l-0 0c-0.036 0.030-0.078 0.053-0.125 0.067l-0.003 0.001c-0.038 0.013-0.081 0.021-0.127 0.022h-0.001c-0.062 0.006-0.11-0.002-0.16-0.025-0.051-0.023-0.094-0.058-0.126-0.101l-0.001-0.001c-0.051-0.082-0.082-0.182-0.082-0.29 0-0.008 0-0.017 0.001-0.025l-0 0.001v-2.177c-0-0.007-0-0.015-0-0.024 0-0.118 0.028-0.23 0.077-0.33l-0.002 0.004c0.031-0.048 0.072-0.086 0.121-0.112l0.002-0.001c0.047-0.025 0.111-0.034 0.17-0.027 0.052-0.002 0.105 0.009 0.153 0.032 0.048 0.024 0.089 0.058 0.119 0.099l0.001 0.001c0.062 0.090 0.105 0.2 0.101 0.308v0.202h0.615v-0.235c0-0.003 0-0.007 0-0.010 0-0.143-0.027-0.28-0.077-0.406l0.003 0.007c-0.048-0.128-0.117-0.237-0.204-0.329l0 0zM5.311 25.951c-0.194-0.164-0.44-0.255-0.694-0.257-0.124 0.001-0.247 0.023-0.364 0.066-0.124 0.047-0.23 0.109-0.324 0.186l0.002-0.002c-0.099 0.090-0.179 0.199-0.235 0.321l-0.002 0.006c-0.056 0.127-0.089 0.275-0.089 0.431 0 0.008 0 0.015 0 0.023l-0-0.001v2.24c-0 0.008-0 0.017-0 0.026 0 0.156 0.033 0.305 0.092 0.439l-0.003-0.007c0.062 0.121 0.135 0.228 0.237 0.308 0.090 0.084 0.197 0.151 0.316 0.195l0.007 0.002c0.123 0.043 0.246 0.065 0.364 0.066 0.131-0.001 0.256-0.025 0.372-0.068l-0.007 0.002c0.127-0.047 0.237-0.114 0.331-0.198l-0.001 0.001c0.096-0.086 0.176-0.194 0.23-0.308 0.056-0.127 0.089-0.275 0.089-0.431 0-0.010-0-0.019-0-0.029l0 0.001v-2.24c0-0.006 0-0.014 0-0.021 0-0.156-0.033-0.304-0.092-0.438l0.003 0.007c-0.054-0.123-0.133-0.234-0.23-0.327zM5.026 28.969c0.001 0.011 0.002 0.023 0.002 0.035 0 0.114-0.047 0.216-0.123 0.289l-0 0c-0.080 0.062-0.182 0.105-0.287 0.105s-0.207-0.037-0.287-0.105c-0.042-0.041-0.075-0.090-0.096-0.146l-0.001-0.003c-0.021-0.062-0.030-0.123-0.025-0.176v-2.24c-0.001-0.011-0.002-0.023-0.002-0.035 0-0.114 0.047-0.216 0.123-0.289l0-0c0.080-0.062 0.182-0.105 0.287-0.105s0.207 0.037 0.287 0.105c0.042 0.041 0.075 0.090 0.096 0.146l0.001 0.003c0.021 0.062 0.030 0.123 0.025 0.176v2.24zM10.072 29.969v-4.246h-0.587l-0.77 2.244h-0.011l-0.777-2.244h-0.581v4.246h0.606v-2.585h0.011l0.593 1.823h0.308l0.598-1.823h0.011v2.585h0.606zM13.512 26.027c-0.091-0.103-0.206-0.182-0.336-0.23l-0.006-0.002c-0.142-0.046-0.289-0.062-0.439-0.066h-0.9v4.246h0.604v-1.668h0.311c0.015 0.001 0.033 0.001 0.051 0.001 0.18 0 0.35-0.043 0.5-0.12l-0.006 0.003c0.139-0.078 0.251-0.188 0.329-0.32l0.002-0.004c0.070-0.113 0.123-0.238 0.138-0.369 0.021-0.133 0.033-0.287 0.033-0.444 0-0.013-0-0.027-0-0.040l0 0.002c0.001-0.021 0.001-0.045 0.001-0.070 0-0.19-0.022-0.375-0.063-0.552l0.003 0.016c-0.045-0.152-0.122-0.283-0.223-0.39l0 0zM13.201 27.319c-0.003 0.081-0.023 0.157-0.057 0.224l0.001-0.003c-0.035 0.065-0.088 0.117-0.154 0.148l-0.002 0.001c-0.075 0.034-0.162 0.054-0.254 0.054-0.011 0-0.022-0-0.032-0.001l0.002 0h-0.276v-1.441h0.311c0.009-0 0.019-0.001 0.029-0.001 0.088 0 0.172 0.020 0.247 0.055l-0.004-0.002c0.062 0.036 0.111 0.090 0.141 0.154l0.001 0.002c0.031 0.069 0.051 0.15 0.053 0.236v0.573h-0.006zM16.374 25.729h-0.495l-0.934 4.246h0.604l0.177-0.911h0.823l0.177 0.911h0.604l-0.958-4.246zM15.816 28.48l0.297-1.537h0.011l0.295 1.537h-0.603zM20.276 28.283h-0.011l-0.911-2.56h-0.581v4.246h0.604v-2.549h0.012l0.923 2.549h0.568v-4.246h-0.603v2.554zM23.967 25.729l-0.492 1.686h-0.012l-0.492-1.686h-0.64l0.83 2.447v1.793h0.604v-1.792l0.83-2.447h-0.64zM0 31.166h0.291v0.817h0.197v-0.817h0.289v-0.167h-0.777v0.167zM2.447 30.998l-0.382 0.985h0.211l0.081-0.224h0.392l0.084 0.224h0.215l-0.391-0.985h-0.21zM2.417 31.593l0.134-0.365 0.134 0.365h-0.268zM4.866 31.62h0.228v0.127c-0.063 0.051-0.145 0.083-0.234 0.083h-0c-0.005 0-0.010 0-0.015 0-0.036 0-0.071-0.008-0.102-0.023l0.001 0.001c-0.037-0.017-0.068-0.042-0.092-0.072l-0-0c-0.046-0.066-0.074-0.147-0.074-0.235 0-0.007 0-0.015 0.001-0.022l-0 0.001c0-0.219 0.095-0.329 0.283-0.329 0.006-0.001 0.013-0.001 0.020-0.001 0.097 0 0.179 0.066 0.202 0.156l0 0.001 0.194-0.037c-0.042-0.193-0.18-0.289-0.417-0.289-0.127-0.004-0.25 0.042-0.345 0.127-0.048 0.048-0.087 0.106-0.112 0.17l-0.001 0.003c-0.025 0.065-0.034 0.135-0.030 0.205-0.006 0.135 0.039 0.266 0.126 0.369 0.048 0.049 0.106 0.089 0.171 0.113 0.051 0.020 0.111 0.032 0.173 0.032 0.011 0 0.021-0 0.032-0.001l-0.001 0c0.005 0 0.011 0 0.017 0 0.155 0 0.296-0.059 0.401-0.157l-0 0v-0.388h-0.426v0.166zM7.337 31.004h-0.198v0.985h0.689v-0.174h-0.49v-0.817zM9.426 31.004h-0.199v0.985h0.199v-0.985zM11.469 31.662l-0.403-0.657h-0.193v0.985h0.185v-0.643l0.396 0.643h0.197v-0.985h-0.182v0.657zM13.315 31.556h0.49v-0.167h-0.49v-0.215h0.528v-0.167h-0.726v0.985h0.747v-0.175h-0.554v-0.266zM17.792 31.393h-0.388v-0.388h-0.197v0.985h0.197v-0.431h0.388v0.431h0.197v-0.985h-0.197v0.388zM19.649 31.556h0.492v-0.167h-0.492v-0.215h0.529v-0.167h-0.732v0.985h0.746v-0.175h-0.554v-0.266zM22.168 31.556c0.171-0.026 0.258-0.123 0.258-0.274 0.005-0.042-0.001-0.084-0.018-0.123s-0.044-0.072-0.077-0.096l-0.001-0c-0.073-0.037-0.158-0.059-0.249-0.059-0.014 0-0.027 0-0.041 0.001l0.002-0h-0.417v0.985h0.197v-0.412h0.039c0.005-0 0.010-0 0.016-0 0.039 0 0.076 0.008 0.109 0.023l-0.002-0.001c0.029 0.018 0.053 0.043 0.070 0.072l0.215 0.308h0.237l-0.12-0.193c-0.053-0.095-0.127-0.176-0.218-0.236zM21.969 31.42h-0.146v-0.247h0.156c0.012-0.001 0.027-0.002 0.042-0.002 0.057 0 0.111 0.009 0.163 0.026l-0.004-0.001c0.026 0.024 0.043 0.058 0.043 0.096 0 0.022-0.006 0.044-0.016 0.062l0-0.001c-0.009 0.017-0.022 0.031-0.037 0.043-0.049 0.016-0.106 0.025-0.164 0.025-0.013 0-0.026-0-0.038-0.001l0.002 0zM24.061 31.556h0.49v-0.167h-0.49v-0.215h0.529v-0.167h-0.729v0.985h0.753v-0.175h-0.554v-0.266z"></path>
</symbol>
<symbol id="company-tagline" viewBox="0 0 62 32">
<path d="M31.123 14.854c-0.251-0.36-0.401-0.806-0.401-1.288 0-0.050 0.002-0.1 0.005-0.15l-0 0.007v-2.075c0-0.636 0.139-1.113 0.394-1.45s0.715-0.495 1.357-0.487c0.602 0 1.030 0.141 1.282 0.422 0.275 0.359 0.417 0.798 0.379 1.241v0.487h-1.077v-0.487c0-0.019 0.001-0.042 0.001-0.064 0-0.148-0.012-0.293-0.034-0.435l0.002 0.016c-0.017-0.115-0.073-0.214-0.153-0.287l-0-0c-0.111-0.082-0.25-0.122-0.39-0.111-0.147-0.010-0.294 0.032-0.417 0.118-0.090 0.081-0.154 0.19-0.178 0.313l-0.001 0.004c-0.027 0.141-0.042 0.303-0.042 0.469 0 0.015 0 0.031 0 0.046l-0-0.002v2.518c-0.002 0.029-0.003 0.062-0.003 0.096 0 0.223 0.052 0.433 0.145 0.62l-0.004-0.008c0.054 0.075 0.128 0.134 0.209 0.171 0.063 0.027 0.136 0.044 0.213 0.044 0.023 0 0.045-0.001 0.067-0.004l-0.003 0c0.013 0.001 0.028 0.002 0.044 0.002 0.128 0 0.245-0.044 0.339-0.117l-0.001 0.001c0.088-0.083 0.144-0.19 0.16-0.306 0.022-0.136 0.034-0.293 0.034-0.452 0-0.018-0-0.037-0-0.055l0 0.003v-0.511h1.077v0.466c0.031 0.462-0.101 0.92-0.372 1.304-0.248 0.308-0.669 0.462-1.288 0.462s-1.088-0.165-1.354-0.506zM35.608 14.875c-0.278-0.323-0.408-0.793-0.408-1.416v-2.189c0-0.616 0.136-1.083 0.408-1.4s0.727-0.474 1.363-0.473c0.626 0 1.085 0.157 1.358 0.473s0.417 0.783 0.417 1.4v2.182c0 0.616-0.139 1.089-0.415 1.414s-0.727 0.487-1.353 0.487-1.090-0.165-1.363-0.486zM37.474 14.351c0.083-0.167 0.131-0.364 0.131-0.573 0-0.026-0.001-0.051-0.002-0.076l0 0.004v-2.671c0.013-0.218-0.031-0.435-0.127-0.626-0.056-0.076-0.13-0.136-0.216-0.173l-0.003-0.001c-0.062-0.027-0.134-0.042-0.209-0.042-0.026 0-0.052 0.002-0.077 0.005l0.003-0c-0.097-0.013-0.195 0-0.278 0.038-0.090 0.038-0.165 0.097-0.22 0.172l-0.001 0.001c-0.083 0.163-0.132 0.355-0.132 0.559 0 0.026 0.001 0.052 0.002 0.078l-0-0.004v2.685c-0.001 0.023-0.002 0.050-0.002 0.077 0 0.207 0.049 0.403 0.135 0.576l-0.003-0.008c0.062 0.067 0.138 0.121 0.222 0.158l0.004 0.002c0.082 0.036 0.177 0.057 0.277 0.057s0.195-0.021 0.281-0.059l-0.005 0.002c0.089-0.039 0.165-0.093 0.227-0.16l0-0v-0.013zM40.034 9.468h1.16l0.872 4.035 0.892-4.035h1.128l0.113 5.812h-0.835l-0.089-4.040-0.861 4.040h-0.675l-0.892-4.054-0.082 4.054h-0.835l0.104-5.812zM45.499 9.468h1.806c1.041 0 1.56 0.557 1.56 1.651 0 1.054-0.547 1.579-1.643 1.579h-0.614v2.583h-1.115l0.007-5.812zM47.042 11.951c0.029 0.004 0.063 0.006 0.097 0.006 0.082 0 0.162-0.012 0.236-0.035l-0.006 0.002c0.108-0.032 0.201-0.086 0.279-0.156l-0.001 0c0.128-0.196 0.184-0.427 0.16-0.657 0.006-0.177-0.012-0.348-0.054-0.527-0.017-0.061-0.045-0.114-0.083-0.16l0.001 0.001c-0.039-0.047-0.086-0.087-0.139-0.116l-0.002-0.001c-0.129-0.059-0.279-0.094-0.438-0.094-0.021 0-0.042 0.001-0.063 0.002l0.003-0h-0.425v1.737h0.433zM50.473 9.468h1.197l1.229 5.812h-1.037l-0.243-1.341h-1.068l-0.25 1.341h-1.047l1.229-5.812zM51.496 13.266l-0.417-2.44-0.417 2.44h0.835zM53.891 9.468h0.781l1.494 3.315v-3.322h0.925v5.812h-0.743l-1.503-3.447v3.462h-0.957l0.002-5.812zM59.257 13.064l-1.242-3.588h1.046l0.765 2.305 0.711-2.305h1.023l-1.226 3.588v2.216h-1.071v-2.216zM32.845 17.823v0.304h-0.91v2.362h-0.381v-2.362h-0.914v-0.304h2.205zM35.697 20.487h-0.294c-0.002 0-0.005 0-0.008 0-0.028 0-0.055-0.009-0.076-0.026l0 0c-0.024-0.018-0.039-0.037-0.049-0.061l-0.263-0.626h-1.268l-0.263 0.626c-0.007 0.026-0.021 0.051-0.040 0.072-0.023 0.017-0.053 0.026-0.083 0.025h-0.294l1.115-2.666h0.388l1.128 2.655zM33.85 19.497h1.053l-0.445-1.085c-0.027-0.065-0.056-0.148-0.079-0.234l-0.004-0.017-0.042 0.141-0.040 0.111-0.442 1.082zM37.619 20.226c0.031 0.002 0.068 0.003 0.105 0.003s0.073-0.001 0.11-0.003l-0.005 0c0.067-0.006 0.127-0.018 0.186-0.034l-0.008 0.002c0.064-0.015 0.117-0.032 0.169-0.052l-0.009 0.003 0.15-0.065v-0.6h-0.445c-0.011 0.001-0.022-0.001-0.033-0.005s-0.021-0.009-0.028-0.017-0.014-0.014-0.017-0.022-0.006-0.017-0.006-0.026v-0.205h0.865v1.023c-0.064 0.044-0.137 0.086-0.213 0.122l-0.010 0.004c-0.069 0.034-0.152 0.064-0.237 0.088l-0.011 0.002c-0.090 0.026-0.184 0.044-0.278 0.056-0.098 0.011-0.211 0.017-0.325 0.017-0 0-0 0-0 0v0c-0.004 0-0.008 0-0.013 0-0.197 0-0.386-0.037-0.56-0.103l0.011 0.004c-0.173-0.066-0.321-0.16-0.446-0.279l0.001 0.001c-0.12-0.117-0.217-0.258-0.284-0.414l-0.003-0.008c-0.070-0.177-0.104-0.365-0.102-0.553-0-0.005-0-0.012-0-0.018 0-0.194 0.037-0.379 0.104-0.549l-0.004 0.010c0.068-0.165 0.166-0.306 0.287-0.422l0-0c0.125-0.117 0.273-0.211 0.437-0.274l0.009-0.003c0.172-0.063 0.371-0.1 0.578-0.1 0.007 0 0.014 0 0.022 0h-0.001c0.001 0 0.003 0 0.005 0 0.108 0 0.214 0.008 0.317 0.024l-0.011-0.001c0.090 0.014 0.179 0.037 0.264 0.067 0.078 0.028 0.153 0.070 0.223 0.106 0.074 0.045 0.137 0.091 0.196 0.141l-0.002-0.002-0.107 0.165c-0.009 0.015-0.021 0.027-0.036 0.036l-0 0c-0.015 0.009-0.032 0.014-0.051 0.014h-0c-0.024-0.001-0.049-0.008-0.070-0.021-0.045-0.023-0.081-0.044-0.115-0.066l0.006 0.004c-0.042-0.026-0.092-0.050-0.143-0.069l-0.007-0.002c-0.057-0.023-0.126-0.043-0.197-0.058l-0.008-0.001c-0.093-0.016-0.188-0.024-0.283-0.023-0.147-0.001-0.292 0.024-0.431 0.074-0.124 0.047-0.237 0.118-0.327 0.211-0.089 0.092-0.16 0.202-0.205 0.325l-0.002 0.006c-0.099 0.289-0.099 0.6 0 0.888 0.052 0.131 0.128 0.243 0.222 0.335l0 0c0.090 0.090 0.198 0.162 0.319 0.209l0.006 0.002c0.142 0.046 0.292 0.064 0.442 0.053zM41.172 20.184h1.217v0.304h-1.59v-2.664h0.381l-0.009 2.362zM43.656 20.488h-0.381v-2.664h0.381v2.666zM45.073 17.835c0.023 0.013 0.042 0.029 0.057 0.048l0 0 1.63 2.017c-0.001-0.014-0.002-0.031-0.002-0.048s0.001-0.033 0.002-0.050l-0 0.002v-1.986h0.333v2.676h-0.192c-0.004 0-0.009 0.001-0.013 0.001-0.025 0-0.049-0.006-0.071-0.016l0.001 0c-0.023-0.014-0.043-0.031-0.060-0.050l-0-0-1.628-2.008v2.073h-0.319v-2.673h0.198c0.025 0.001 0.049 0.005 0.071 0.013l-0.002-0zM49.9 17.823v0.294h-1.343v0.88h1.095v0.282h-1.095v0.91h1.351v0.294h-1.743v-2.66h1.743zM9.951 1.359l16.929 4.55v15.946l-16.929-4.547v-15.949zM8.865 0v18.082l19.098 5.135v-18.087l-19.098-5.13z"></path>
<path d="M19.101 31.61l-19.101-5.139v-18.087l19.101 5.137v18.089z"></path>
<path d="M9.181 1.155l16.708 4.494-7.107 6.734-16.71-4.501 7.107-6.727zM8.865 0l-8.865 8.392 19.101 5.137 8.863-8.392-19.098-5.137zM20.174 30.593l7.788-7.374-7.788-2.096v9.47z"></path>
</symbol>
<symbol id="company" viewBox="0 0 31 32">
<path d="M4.722 31.103c0.011 0 0.022 0.003 0.032 0.007s0.019 0.010 0.027 0.019l0.153 0.161c-0.119 0.128-0.262 0.231-0.423 0.302l-0.008 0.003c-0.169 0.070-0.366 0.11-0.571 0.11-0.014 0-0.027-0-0.041-0.001l0.002 0c-0.009 0-0.020 0-0.031 0-0.196 0-0.382-0.038-0.554-0.106l0.010 0.004c-0.169-0.068-0.313-0.166-0.432-0.288l-0-0c-0.124-0.129-0.218-0.281-0.28-0.445-0.074-0.184-0.1-0.377-0.097-0.571-0-0.006-0-0.014-0-0.021 0-0.199 0.038-0.388 0.108-0.562l-0.004 0.010c0.074-0.173 0.175-0.32 0.298-0.445l-0 0c0.129-0.123 0.281-0.224 0.449-0.294l0.010-0.004c0.17-0.065 0.367-0.102 0.573-0.102 0.007 0 0.013 0 0.020 0h-0.001c0.010-0 0.022-0 0.034-0 0.185 0 0.362 0.034 0.525 0.097l-0.010-0.003c0.152 0.063 0.298 0.149 0.412 0.258l-0.128 0.171c-0.009 0.012-0.020 0.022-0.033 0.031s-0.034 0.015-0.052 0.013-0.039-0.007-0.056-0.019l-0.069-0.045-0.097-0.058c-0.035-0.019-0.077-0.038-0.121-0.054l-0.007-0.002c-0.049-0.018-0.107-0.033-0.168-0.044l-0.006-0.001c-0.061-0.012-0.132-0.018-0.204-0.018-0.008 0-0.017 0-0.025 0l0.001-0c-0.004-0-0.009-0-0.014-0-0.148 0-0.289 0.028-0.419 0.079l0.008-0.003c-0.13 0.050-0.241 0.123-0.333 0.215l0-0c-0.092 0.095-0.166 0.21-0.214 0.336l-0.002 0.007c-0.050 0.129-0.078 0.279-0.078 0.435 0 0.006 0 0.012 0 0.018v-0.001c-0 0.006-0 0.012-0 0.019 0 0.158 0.029 0.31 0.081 0.45l-0.003-0.009c0.050 0.132 0.123 0.246 0.213 0.341l-0-0c0.087 0.091 0.193 0.163 0.312 0.209l0.006 0.002c0.114 0.046 0.246 0.073 0.384 0.073 0.003 0 0.007-0 0.010-0h-0.001c0.078 0.002 0.149-0.004 0.234-0.015 0.127-0.015 0.247-0.057 0.354-0.122 0.057-0.036 0.106-0.073 0.152-0.114l-0.001 0.001c0.019-0.018 0.045-0.028 0.073-0.030zM9.144 30.296c0 0.005 0 0.011 0 0.017 0 0.198-0.038 0.387-0.107 0.56l0.004-0.010c-0.063 0.164-0.161 0.315-0.288 0.441s-0.283 0.223-0.452 0.298c-0.375 0.136-0.789 0.136-1.164 0-0.177-0.068-0.327-0.169-0.449-0.297l-0-0c-0.123-0.123-0.222-0.271-0.288-0.436l-0.003-0.009c-0.065-0.169-0.103-0.364-0.103-0.568s0.038-0.399 0.107-0.579l-0.004 0.011c0.066-0.166 0.164-0.318 0.298-0.447 0.125-0.119 0.275-0.213 0.44-0.276l0.009-0.003c0.173-0.066 0.373-0.104 0.582-0.104s0.409 0.038 0.594 0.108l-0.012-0.004c0.177 0.068 0.328 0.169 0.451 0.297l0 0c0.121 0.123 0.218 0.268 0.285 0.43l0.003 0.009c0.071 0.182 0.106 0.376 0.104 0.571zM8.742 30.296c0-0.007 0-0.016 0-0.025 0-0.155-0.027-0.303-0.076-0.441l0.003 0.009c-0.046-0.133-0.116-0.246-0.205-0.341l0 0c-0.089-0.092-0.197-0.165-0.318-0.213l-0.006-0.002c-0.126-0.047-0.271-0.075-0.423-0.075s-0.297 0.027-0.432 0.078l0.009-0.003c-0.127 0.050-0.235 0.123-0.323 0.215l-0 0c-0.090 0.094-0.16 0.208-0.205 0.334l-0.002 0.007c-0.046 0.136-0.073 0.293-0.073 0.456s0.027 0.32 0.076 0.466l-0.003-0.010c0.043 0.127 0.114 0.243 0.207 0.341 0.089 0.092 0.197 0.164 0.318 0.211l0.006 0.002c0.126 0.046 0.271 0.073 0.423 0.073s0.297-0.027 0.432-0.076l-0.009 0.003c0.127-0.049 0.235-0.122 0.323-0.213l0-0c0.092-0.099 0.162-0.223 0.205-0.341 0.046-0.127 0.073-0.275 0.073-0.428 0-0.010-0-0.020-0-0.030l0 0.001zM12.16 30.774l0.040 0.102 0.045-0.102c0.017-0.040 0.034-0.073 0.052-0.105l-0.002 0.005 0.978-1.694c0.019-0.030 0.037-0.048 0.056-0.052 0.020-0.006 0.043-0.009 0.067-0.009 0.005 0 0.009 0 0.014 0l-0.001-0h0.289v2.756h-0.342v-2.112c-0.001-0.014-0.001-0.031-0.001-0.047s0-0.033 0.001-0.050l-0 0.002-0.984 1.718c-0.013 0.026-0.033 0.048-0.057 0.063s-0.052 0.022-0.083 0.022c-0.001 0-0.001 0-0.002 0h-0.056c-0.001 0-0.002 0-0.004 0-0.030 0-0.058-0.008-0.081-0.023l0.001 0c-0.025-0.015-0.044-0.037-0.057-0.062l-0-0.001-1.012-1.729v2.212h-0.331v-2.749h0.289c0.004-0 0.009-0 0.013-0 0.024 0 0.047 0.003 0.069 0.010l-0.002-0c0.024 0.011 0.042 0.029 0.053 0.052l0 0.001 0.999 1.697c0.018 0.028 0.035 0.060 0.048 0.094l0.001 0.004zM15.841 30.638v1.032h-0.383v-2.751h0.854c0.009-0 0.020-0 0.031-0 0.159 0 0.312 0.022 0.458 0.063l-0.012-0.003c0.13 0.036 0.242 0.095 0.339 0.173l-0.002-0.001c0.083 0.073 0.148 0.163 0.19 0.265l0.002 0.005c0.045 0.112 0.074 0.223 0.065 0.352 0.002 0.121-0.022 0.24-0.071 0.352-0.046 0.106-0.117 0.199-0.207 0.275-0.095 0.080-0.208 0.143-0.332 0.181l-0.007 0.002c-0.149 0.045-0.298 0.074-0.461 0.064l-0.463-0.007zM15.841 30.343h0.463c0.1 0.002 0.201-0.013 0.298-0.042 0.083-0.027 0.154-0.067 0.215-0.12l-0.001 0.001c0.056-0.049 0.1-0.11 0.129-0.179l0.001-0.003c0.029-0.066 0.046-0.144 0.046-0.225 0-0.002 0-0.004-0-0.006v0c0.001-0.009 0.001-0.019 0.001-0.029 0-0.070-0.015-0.137-0.041-0.198l0.001 0.003c-0.032-0.074-0.077-0.137-0.133-0.188l-0-0c-0.126-0.093-0.284-0.15-0.455-0.15-0.021 0-0.042 0.001-0.063 0.003l0.003-0h-0.463v1.134zM20.986 31.673h-0.302c-0.030 0.001-0.060-0.007-0.084-0.025s-0.039-0.039-0.050-0.064l-0.26-0.666h-1.308l-0.27 0.666c-0.011 0.025-0.027 0.046-0.047 0.061l-0 0c-0.025 0.019-0.055 0.028-0.086 0.028h-0.302l1.148-2.756h0.398l1.164 2.756zM19.091 30.649h1.079l-0.455-1.122c-0.030-0.071-0.060-0.157-0.083-0.245l-0.003-0.013-0.045 0.144c-0.015 0.049-0.030 0.088-0.046 0.126l0.003-0.009-0.452 1.12zM22.641 28.938c0.022 0.012 0.042 0.030 0.057 0.049l1.674 2.084v-2.14h0.342v2.756h-0.191c-0.001 0-0.003 0-0.005 0-0.027 0-0.052-0.006-0.074-0.017l0.001 0c-0.024-0.013-0.045-0.031-0.061-0.052l-0-0-1.673-2.084c0.002 0.031 0.002 0.063 0 0.095v2.048h-0.342v-2.756h0.203c0.001-0 0.003-0 0.004-0 0.023 0 0.046 0.005 0.066 0.013l-0.001-0zM27.538 30.585v1.094h-0.383v-1.094l-1.058-1.66h0.342c0.030-0.002 0.060 0.007 0.074 0.024s0.039 0.039 0.052 0.062l0.67 1.072 0.069 0.127c0.015 0.031 0.032 0.070 0.045 0.109l0.002 0.008 0.050-0.119c0.021-0.049 0.043-0.090 0.067-0.13l-0.002 0.004 0.653-1.078c0.014-0.022 0.031-0.041 0.050-0.058l0-0c0.022-0.019 0.052-0.030 0.074-0.028h0.347l-1.060 1.667zM11.972 24.301l0.506 0.052c2.582-1.101 4.768-2.902 6.281-5.18s2.29-4.93 2.23-7.624l-2.846-2.712c0.189 0.894 0.297 1.921 0.297 2.973 0 2.015-0.396 3.938-1.115 5.695l0.036-0.1c-1.090 2.731-2.956 5.12-5.389 6.899zM10.955 24.174l0.077 0.015c2.6-1.771 4.583-4.246 5.692-7.104 0.627-1.564 0.991-3.378 0.991-5.276 0-1.296-0.17-2.553-0.488-3.748l0.023 0.101-4.054-3.87c1.639 3.175 2.307 6.727 1.904 10.246s-1.833 6.857-4.143 9.628zM24.705 14.73c-0.688 2.962-2.361 5.632-4.763 7.616-0.665 0.554-1.406 1.067-2.191 1.511l-0.075 0.039c1.961-0.549 3.764-1.52 5.269-2.838s2.679-2.947 3.412-4.763l-1.637-1.565zM24.060 14.294l-2.341-2.23c-0.053 2.681-0.865 5.162-2.23 7.249l0.032-0.053c-1.394 2.169-3.371 3.943-5.729 5.137h0.011c0 0 0 0 0 0 0.554 0 1.1-0.032 1.637-0.096l-0.065 0.006c2.203-0.856 4.148-2.219 5.656-3.966s2.553-3.825 3.021-6.047zM11.294 2.664l-2.793-2.664c-2.497 0.919-4.644 2.535-6.16 4.636s-2.333 4.589-2.34 7.139v0c0.010 2.817 1.005 5.552 2.828 7.769s4.372 3.793 7.241 4.476c2.562-2.973 4.061-6.647 4.281-10.488s-0.851-7.654-3.056-10.869zM30.512 13.879c-0.010-3.343-1.409-6.547-3.89-8.91s-5.844-3.704-9.352-3.707c-0.007 0-0.015-0-0.024-0-1.693 0-3.315 0.308-4.811 0.872l0.094-0.031 17.099 16.298c0.559-1.334 0.883-2.885 0.883-4.511 0-0.004 0-0.008 0-0.012v0.001z"></path>
</symbol>
<symbol id="envelope" viewBox="0 0 43 32">
<path d="M38.667 0h-34.667c-2.209 0-4 1.791-4 4v0 0 24c0 2.209 1.791 4 4 4v0h34.667c2.209 0 4-1.791 4-4v0 0-24c0-2.209-1.791-4-4-4v0 0zM38.667 2.667c0.18 0 0.355 0.037 0.512 0.107l-17.845 15.46-17.844-15.466c0.15-0.064 0.326-0.1 0.5-0.1h34.67zM38.667 29.333h-34.667c-0.736 0-1.333-0.597-1.333-1.333v0-22.413l17.792 15.42c0.232 0.203 0.538 0.327 0.873 0.327s0.642-0.124 0.876-0.329l-0.002 0.001-0.002 0.001 17.795-15.42v22.413c0 0.736-0.597 1.333-1.333 1.333v0z"></path>
</symbol>
<symbol id="facebook" viewBox="0 0 32 32">
<path d="M21.328 5.312h2.922v-5.088c-0.502-0.067-2.237-0.224-4.254-0.224-4.213 0-7.099 2.65-7.099 7.52v4.48h-4.646v5.688h4.646v14.312h5.699v-14.31h4.445l0.707-5.688h-5.168v-3.92c0.002-1.643 0.443-2.768 2.736-2.768z"></path>
</symbol>
<symbol id="foster-peters" viewBox="0 0 60 32">
<path d="M9.229 9.548h-0.002c-1.683 0-3.048 1.33-3.048 2.971v0.002c0 1.641 1.365 2.971 3.048 2.971h0.002c1.683 0 3.048-1.33 3.048-2.971v-0.002c0-1.641-1.365-2.971-3.048-2.971zM31.73 8.599c-0.004-2.279-0.935-4.463-2.59-6.074-1.61-1.561-3.808-2.524-6.232-2.525h-0c-2.339 0.004-4.581 0.912-6.236 2.53s-2.585 3.795-2.59 6.076v12.559s17.637-1.915 17.647-12.564v-0.002zM0 25.289c0.008 1.659 0.697 3.155 1.801 4.225l0.002 0.001c1.151 1.122 2.709 1.753 4.336 1.758 1.627-0.004 3.185-0.636 4.336-1.756 1.106-1.071 1.794-2.567 1.803-4.224v-8.746s-12.278 1.334-12.278 8.742zM6.14 26.855c-0 0-0.001 0-0.001 0-0.332 0-0.64-0.099-0.898-0.268l0.006 0.004c-0.264-0.171-0.47-0.417-0.592-0.703s-0.153-0.601-0.092-0.905c0.067-0.317 0.222-0.591 0.439-0.802l0-0c0.22-0.213 0.5-0.365 0.813-0.427l0.010-0.002c0.313-0.060 0.635-0.030 0.929 0.089 0.298 0.122 0.543 0.32 0.718 0.572l0.003 0.005c0.169 0.243 0.271 0.545 0.271 0.871v0c0 0.002 0 0.003 0 0.005 0 0.215-0.044 0.42-0.124 0.606l0.004-0.010c-0.085 0.199-0.203 0.369-0.348 0.51l-0 0c-0.149 0.146-0.327 0.262-0.522 0.341-0.182 0.076-0.394 0.12-0.616 0.12-0 0-0 0-0.001 0h0v-0.006zM18.679 25.883h-1.255v1.297h-0.655v-3.172h2.059v0.53h-1.412v0.82h1.264v0.521zM21.823 25.665c0 0.313-0.055 0.586-0.166 0.822s-0.268 0.417-0.476 0.545-0.441 0.192-0.707 0.192-0.499-0.063-0.704-0.19-0.366-0.307-0.48-0.541-0.171-0.506-0.171-0.819v-0.149c0-0.313 0.056-0.595 0.168-0.824 0.105-0.229 0.269-0.415 0.473-0.544l0.005-0.003c0.206-0.128 0.442-0.192 0.707-0.192 0.007-0 0.015-0 0.023-0 0.252 0 0.487 0.072 0.686 0.195l-0.006-0.003c0.206 0.127 0.372 0.309 0.478 0.547s0.171 0.511 0.171 0.822v0.149zM21.154 25.521c0-0.333-0.060-0.586-0.179-0.759s-0.298-0.26-0.511-0.26c-0.008-0-0.017-0.001-0.026-0.001-0.2 0-0.377 0.102-0.481 0.256l-0.001 0.002c-0.119 0.17-0.179 0.42-0.181 0.75v0.155c0 0.324 0.060 0.575 0.179 0.755 0.105 0.162 0.285 0.268 0.489 0.268 0.009 0 0.017-0 0.026-0.001l-0.001 0c0.22 0 0.387-0.086 0.506-0.258s0.177-0.424 0.179-0.755v-0.155zM23.937 26.34c0-0.124-0.045-0.218-0.131-0.283s-0.244-0.137-0.471-0.208-0.406-0.147-0.539-0.218c-0.36-0.195-0.541-0.457-0.541-0.787-0-0.003-0-0.007-0-0.011 0-0.168 0.054-0.323 0.145-0.449l-0.002 0.002c0.106-0.141 0.247-0.25 0.41-0.314l0.006-0.002c0.181-0.076 0.386-0.113 0.61-0.113s0.429 0.042 0.606 0.124 0.315 0.197 0.412 0.347c0.093 0.141 0.149 0.314 0.149 0.5 0 0.004-0 0.007-0 0.011v-0.001h-0.655c0-0.007 0.001-0.016 0.001-0.024 0-0.124-0.053-0.236-0.138-0.313l-0-0c-0.092-0.074-0.22-0.122-0.387-0.122-0.16 0-0.284 0.034-0.372 0.103s-0.134 0.149-0.134 0.266c0 0.104 0.052 0.19 0.155 0.26s0.258 0.135 0.46 0.196c0.372 0.112 0.643 0.251 0.813 0.417s0.255 0.372 0.255 0.619c0 0.009 0.001 0.019 0.001 0.030 0 0.252-0.122 0.476-0.31 0.616l-0.002 0.001c-0.208 0.149-0.487 0.233-0.839 0.233-0.244 0-0.467-0.045-0.667-0.134-0.189-0.080-0.344-0.206-0.458-0.365l-0.002-0.003c-0.099-0.147-0.157-0.328-0.157-0.522 0-0.007 0-0.013 0-0.020l-0 0.001h0.656c0 0.35 0.208 0.525 0.628 0.525 0.149 0 0.277-0.031 0.372-0.094s0.131-0.153 0.131-0.266zM27.434 24.528h-0.973v2.645h-0.655v-2.637h-0.967v-0.53h2.586v0.53zM29.719 25.796h-1.255v0.851h1.474v0.525h-2.128v-3.165h2.123v0.53h-1.47v0.757h1.256v0.521zM31.496 26.010h-0.521v1.162h-0.655v-3.165h1.18c0.375 0 0.665 0.083 0.868 0.251s0.298 0.403 0.298 0.708c0 0.223-0.047 0.397-0.149 0.543s-0.234 0.259-0.424 0.345l0.687 1.297v0.030h-0.702l-0.595-1.162zM30.975 25.48h0.521c0.164 0 0.292-0.042 0.382-0.124s0.135-0.201 0.135-0.347-0.043-0.268-0.129-0.354-0.214-0.129-0.39-0.129h-0.525v0.953zM34.939 26.053v1.119h-0.655v-3.164h1.238c0.238 0 0.448 0.045 0.628 0.131 0.176 0.082 0.319 0.21 0.417 0.369l0.002 0.004c0.097 0.16 0.146 0.342 0.146 0.547 0 0.311-0.107 0.557-0.32 0.744s-0.506 0.268-0.883 0.268h-0.573zM34.939 25.523h0.584c0.173 0 0.298-0.041 0.394-0.122s0.138-0.198 0.138-0.35c0-0.149-0.045-0.281-0.138-0.377-0.093-0.092-0.221-0.149-0.362-0.149-0.004 0-0.007 0-0.011 0h-0.599v0.997zM39.076 25.796h-1.255v0.851h1.474v0.525h-2.128v-3.164h2.123v0.53h-1.47v0.757h1.25v0.521zM42.111 24.527h-0.98v2.645h-0.655v-2.636h-0.967v-0.53h2.586v0.53zM44.396 25.796h-1.263v0.851h1.474v0.525h-2.128v-3.164h2.124v0.53h-1.469v0.757h1.256v0.521zM46.173 26.009h-0.521v1.162h-0.655v-3.164h1.18c0.375 0 0.665 0.083 0.868 0.251s0.298 0.403 0.298 0.708c0 0.223-0.048 0.397-0.149 0.543s-0.235 0.259-0.424 0.345l0.687 1.297v0.030h-0.702l-0.595-1.162zM45.652 25.479h0.521c0.164 0 0.292-0.042 0.382-0.124s0.135-0.201 0.135-0.347-0.043-0.268-0.129-0.354-0.214-0.129-0.39-0.129h-0.525v0.953zM49.496 26.338c0-0.124-0.045-0.218-0.131-0.283s-0.244-0.137-0.471-0.208c-0.209-0.065-0.388-0.139-0.558-0.227l0.019 0.009c-0.36-0.195-0.541-0.457-0.541-0.787-0-0.003-0-0.007-0-0.011 0-0.168 0.054-0.323 0.145-0.449l-0.002 0.002c0.106-0.141 0.247-0.25 0.41-0.314l0.006-0.002c0.181-0.076 0.385-0.113 0.61-0.113 0.007-0 0.016-0 0.024-0 0.211 0 0.411 0.046 0.591 0.128l-0.009-0.004c0.177 0.082 0.315 0.197 0.412 0.347 0.093 0.141 0.149 0.314 0.149 0.5 0 0.004-0 0.007-0 0.011v-0.001h-0.655c0-0.008 0.001-0.016 0.001-0.025 0-0.124-0.053-0.235-0.137-0.313l-0-0c-0.092-0.074-0.22-0.122-0.387-0.122-0.16 0-0.284 0.034-0.372 0.103s-0.134 0.149-0.134 0.266c0 0.104 0.052 0.19 0.155 0.26s0.258 0.135 0.46 0.196c0.372 0.112 0.643 0.251 0.813 0.417s0.255 0.372 0.255 0.619c0 0.009 0.001 0.019 0.001 0.030 0 0.252-0.122 0.476-0.31 0.616l-0.002 0.001c-0.208 0.149-0.487 0.233-0.839 0.233-0.244 0-0.467-0.045-0.668-0.134s-0.354-0.213-0.46-0.368c-0.099-0.147-0.157-0.328-0.157-0.522 0-0.007 0-0.013 0-0.020l-0 0.001h0.656c0 0.35 0.208 0.525 0.628 0.525 0.149 0 0.277-0.031 0.372-0.094s0.131-0.153 0.131-0.266z"></path>
</symbol>
<symbol id="instagram" viewBox="0 0 32 32">
<path d="M31.968 9.408c-0.075-1.701-0.352-2.869-0.744-3.882-0.424-1.111-1.054-2.059-1.85-2.837l-0.001-0.001c-0.78-0.792-1.724-1.42-2.778-1.827l-0.054-0.018c-1.018-0.395-2.179-0.683-3.88-0.742l-6.602-0.101-6.595 0.096c-1.699 0.072-2.869 0.347-3.864 0.741-1.118 0.422-2.072 1.052-2.855 1.85l-0.001 0.001c-0.813 0.8-1.443 1.77-1.845 2.832-0.394 1.019-0.669 2.181-0.744 3.882l-0.101 6.602 0.096 6.595c0.075 1.701 0.352 2.869 0.744 3.882 0.426 1.111 1.055 2.057 1.849 2.837l0.001 0.001c0.8 0.813 1.77 1.445 2.832 1.845 1.019 0.394 2.181 0.669 3.882 0.744l6.595 0.096 6.595-0.096c1.701-0.075 2.869-0.352 3.882-0.744 2.157-0.85 3.832-2.525 4.664-4.626l0.019-0.055c0.394-1.019 0.669-2.182 0.744-3.882l0.096-6.595-0.080-6.595zM29.088 22.474c-0.069 1.563-0.331 2.406-0.55 2.97-0.552 1.4-1.639 2.487-3.002 3.026l-0.036 0.013c-0.563 0.219-1.413 0.48-2.97 0.55l-6.464 0.096c-4.272 0-4.8-0.019-6.464-0.096-1.563-0.069-2.406-0.331-2.97-0.55-0.721-0.269-1.336-0.676-1.839-1.192l-0.001-0.001c-0.516-0.504-0.923-1.118-1.182-1.804l-0.011-0.034c-0.219-0.563-0.48-1.413-0.55-2.97l-0.091-6.48 0.096-6.464c0.069-1.563 0.331-2.406 0.55-2.97 0.269-0.722 0.678-1.337 1.198-1.837l0.002-0.002c0.504-0.517 1.119-0.924 1.806-1.182l0.034-0.011c0.563-0.219 1.413-0.48 2.97-0.55l6.464-0.096 6.464 0.096c1.563 0.069 2.406 0.331 2.97 0.55 0.721 0.27 1.336 0.677 1.839 1.193l0.001 0.001c0.516 0.504 0.923 1.118 1.182 1.804l0.011 0.034c0.219 0.563 0.48 1.413 0.55 2.97l0.096 6.464-0.096 6.458zM16.059 7.782c-4.54 0.002-8.219 3.681-8.221 8.221v0c0.002 4.54 3.681 8.219 8.221 8.221v0c4.54-0.002 8.219-3.681 8.221-8.221v0c-0.002-4.54-3.681-8.219-8.221-8.221v0zM16.059 21.334c-2.944 0-5.333-2.387-5.333-5.333s2.389-5.328 5.333-5.328 5.333 2.387 5.333 5.333-2.387 5.333-5.333 5.333zM26.523 7.456c0 1.060-0.86 1.92-1.92 1.92s-1.92-0.86-1.92-1.92v0c0-1.060 0.86-1.92 1.92-1.92s1.92 0.86 1.92 1.92v0z"></path>
</symbol>
<symbol id="linkedin" viewBox="0 0 32 32">
<path d="M31.992 32h0.008v-11.736c0-5.74-1.237-10.163-7.947-10.163-3.227 0-5.392 1.77-6.277 3.45h-0.093v-2.9h-6.365v21.349h6.627v-10.58c0-2.784 0.528-5.478 3.978-5.478 3.398 0 3.45 3.18 3.45 5.658v10.4h6.62zM0.528 10.635h6.635v21.365h-6.635v-21.365zM3.843 0c-2.123 0-3.843 1.722-3.843 3.843s1.722 3.877 3.843 3.877 3.843-1.757 3.843-3.878-1.723-3.842-3.843-3.842v0z"></path>
</symbol>
<symbol id="smartphone" viewBox="0 0 20 32">
<path d="M17 0h-14c-1.657 0-3 1.343-3 3v0 26c0 1.657 1.343 3 3 3v0h14c1.657 0 3-1.343 3-3v0-26c0-1.657-1.343-3-3-3v0zM3 2h14c0.552 0 1 0.448 1 1v0 21h-16v-21c0-0.552 0.448-1 1-1v0zM17 30h-14c-0.552 0-1-0.448-1-1v0-3h16v3c0 0.552-0.448 1-1 1v0zM4.708 27.48c0.39 0.364 0.39 0.956 0 1.32s-1.024 0.364-1.414 0-0.39-0.956 0-1.32 1.024-0.364 1.414 0z"></path>
</symbol>
<symbol id="twitter" viewBox="0 0 32 32">
<path d="M32 6.080c-1.1 0.494-2.376 0.858-3.713 1.030l-0.068 0.007c1.36-0.811 2.4-2.088 2.886-3.626-1.267 0.755-2.667 1.29-4.16 1.587-1.202-1.278-2.904-2.074-4.792-2.075v0c-3.621 0.003-6.555 2.939-6.555 6.56 0 0.001 0 0.001 0 0.002v0c0 0.52 0.043 1.019 0.152 1.496-5.456-0.266-10.28-2.88-13.52-6.864-0.566 0.981-0.902 2.107-0.902 3.315 0 2.272 1.168 4.288 2.912 5.451-1.091-0.030-2.106-0.326-2.993-0.823l0.033 0.017v0.072c0.004 3.164 2.237 5.805 5.213 6.439l0.043 0.008c-0.5 0.137-1.075 0.216-1.668 0.216-0.018 0-0.036 0-0.055 0h0.003c-0.031 0.001-0.067 0.001-0.103 0.001-0.403 0-0.796-0.041-1.176-0.119l0.037 0.006c0.874 2.623 3.273 4.495 6.121 4.569h0.009c-2.215 1.745-5.045 2.798-8.121 2.798-0.005 0-0.009 0-0.014 0h0.001c-0.022 0-0.048 0-0.074 0-0.527 0-1.046-0.033-1.556-0.098l0.061 0.006c2.906 1.872 6.352 2.944 10.080 2.944 12.072 0 18.672-10 18.672-18.667 0-0.288-0.010-0.57-0.024-0.848 1.302-0.925 2.395-2.080 3.288-3.408z"></path>
</symbol>
<symbol id="ya-co" viewBox="0 0 29 32">
<path d="M3.84 0l4.677 4.428h13.046v12.351l4.676 4.428v-21.206h-22.4z"></path>
<path d="M0 4.241v20.6h21.76v-8.188l-13.105-12.407-8.655-0.005zM17.615 21.828h-14.172v-13.855h1.002v12.916h13.17v0.938zM6.272 28.662l0.524-1.078h0.438l-0.768 1.437v0.832h-0.397v-0.832l-0.765-1.437h0.439l0.524 1.078zM8.512 29.329h-0.881l-0.184 0.53h-0.411l0.86-2.275h0.355l0.861 2.275h-0.406l-0.192-0.53zM7.741 29.010h0.659l-0.33-0.944-0.33 0.944zM10.070 29.244c0-0.105 0.029-0.202 0.086-0.289s0.17-0.193 0.339-0.32c-0.088-0.111-0.15-0.206-0.192-0.284s-0.051-0.154-0.051-0.227c0-0.178 0.054-0.319 0.163-0.422s0.254-0.156 0.438-0.156c0.166 0 0.301 0.049 0.406 0.147 0.098 0.086 0.159 0.212 0.159 0.352 0 0.003-0 0.007-0 0.010v-0c0 0.095-0.024 0.182-0.072 0.256-0.063 0.095-0.142 0.174-0.233 0.236l-0.003 0.002-0.155 0.113 0.439 0.512c0.061-0.118 0.096-0.257 0.096-0.405 0-0.004-0-0.009-0-0.013v0.001h0.33c0 0.28-0.065 0.51-0.197 0.689l0.335 0.396h-0.44l-0.128-0.152c-0.154 0.114-0.348 0.183-0.558 0.183-0.008 0-0.016-0-0.024-0l0.001 0c-0.225 0-0.405-0.060-0.541-0.178s-0.202-0.275-0.202-0.467zM10.823 29.587c0.128 0 0.248-0.043 0.358-0.128l-0.497-0.586-0.049 0.035c-0.125 0.095-0.188 0.203-0.188 0.325 0 0.105 0.034 0.191 0.102 0.256s0.158 0.099 0.272 0.099zM10.614 28.115c0 0.088 0.054 0.197 0.161 0.33l0.173-0.118 0.049-0.038c0.059-0.052 0.097-0.128 0.097-0.212 0-0.003-0-0.005-0-0.008v0c0-0.001 0-0.002 0-0.003 0-0.059-0.026-0.112-0.067-0.149l-0-0c-0.042-0.040-0.099-0.064-0.162-0.064-0.003 0-0.006 0-0.009 0h0c-0.003-0-0.006-0-0.009-0-0.066 0-0.126 0.029-0.167 0.075l-0 0c-0.041 0.048-0.066 0.11-0.066 0.179 0 0.003 0 0.007 0 0.010v-0zM14.747 29.112c-0.023 0.243-0.113 0.432-0.269 0.576s-0.365 0.203-0.623 0.203c-0.181 0-0.341-0.043-0.48-0.128-0.14-0.089-0.249-0.214-0.317-0.362l-0.002-0.005c-0.076-0.159-0.114-0.342-0.117-0.552v-0.212c0-0.214 0.038-0.403 0.114-0.567s0.192-0.289 0.32-0.384 0.307-0.133 0.493-0.133c0.251 0 0.453 0.068 0.606 0.205s0.242 0.329 0.268 0.578h-0.394c-0.019-0.164-0.067-0.282-0.144-0.353s-0.188-0.109-0.336-0.109c-0.172 0-0.304 0.063-0.397 0.189s-0.138 0.309-0.141 0.552v0.202c0 0.246 0.044 0.433 0.131 0.563s0.218 0.194 0.387 0.194c0.155 0 0.272-0.035 0.35-0.105s0.128-0.192 0.148-0.348h0.394zM16.923 28.774c0 0.223-0.038 0.419-0.115 0.588s-0.188 0.297-0.332 0.387c-0.135 0.084-0.3 0.135-0.476 0.135-0.006 0-0.012-0-0.018-0h0.001c-0.184 0-0.349-0.045-0.493-0.128s-0.256-0.22-0.335-0.386-0.118-0.358-0.119-0.576v-0.128c0-0.222 0.038-0.418 0.117-0.588s0.19-0.3 0.333-0.389 0.308-0.136 0.493-0.136 0.349 0.045 0.493 0.128 0.255 0.216 0.333 0.384c0.075 0.165 0.119 0.358 0.119 0.562 0 0.007-0 0.015-0 0.022v-0.001 0.127zM16.527 28.656c0-0.252-0.048-0.445-0.144-0.58-0.085-0.123-0.226-0.202-0.385-0.202-0.007 0-0.014 0-0.021 0l0.001-0c-0.005-0-0.011-0-0.017-0-0.159 0-0.299 0.079-0.384 0.2l-0.001 0.002c-0.096 0.133-0.145 0.323-0.147 0.567v0.131c0 0.256 0.049 0.444 0.145 0.58s0.234 0.205 0.406 0.205 0.309-0.067 0.403-0.2 0.142-0.328 0.142-0.584v-0.118z"></path>
</symbol>
<symbol id="send-icon" viewBox="0 0 24 24" >
<path d="M24 0L0 13.5L7.66994 16.3407L19.5 5.25002L10.5017 17.3896L10.509 17.3923L10.5 17.3896V24.0001L14.8013 18.982L20.2501 21.0001L24 0Z" />
</symbol>

<symbol  id="phone" viewBox="0 0 18 18">
<path d="M13.996 11.1226L12.1579 10.9127C11.7164 10.862 11.2822 11.014 10.971 11.3252L9.63945 12.6568C7.59144 11.6147 5.91251 9.94296 4.87041 7.8877L6.20922 6.54888C6.5204 6.2377 6.67237 5.80349 6.62171 5.36205L6.41185 3.53836C6.325 2.80745 5.70988 2.25745 4.97173 2.25745H3.71976C2.902 2.25745 2.22175 2.93771 2.2724 3.75547C2.65595 9.93572 7.59868 14.8712 13.7717 15.2548C14.5894 15.3054 15.2697 14.6252 15.2697 13.8074V12.5555C15.2769 11.8245 14.7269 11.2094 13.996 11.1226Z" />
</symbol>

<symbol id="envelope-modal" viewBox="0 0 16 12" >
<path d="M14 0H2C1.175 0 0.5075 0.675 0.5075 1.5L0.5 10.5C0.5 11.325 1.175 12 2 12H14C14.825 12 15.5 11.325 15.5 10.5V1.5C15.5 0.675 14.825 0 14 0ZM13.7 3.1875L8.3975 6.5025C8.1575 6.6525 7.8425 6.6525 7.6025 6.5025L2.3 3.1875C2.1125 3.0675 2 2.865 2 2.6475C2 2.145 2.5475 1.845 2.975 2.1075L8 5.25L13.025 2.1075C13.4525 1.845 14 2.145 14 2.6475C14 2.865 13.8875 3.0675 13.7 3.1875Z" />
</symbol>

<symbol  id="human" viewBox="0 0 12 12" >
<path d="M6 6C7.6575 6 9 4.6575 9 3C9 1.3425 7.6575 0 6 0C4.3425 0 3 1.3425 3 3C3 4.6575 4.3425 6 6 6ZM6 7.5C3.9975 7.5 0 8.505 0 10.5V11.25C0 11.6625 0.3375 12 0.75 12H11.25C11.6625 12 12 11.6625 12 11.25V10.5C12 8.505 8.0025 7.5 6 7.5Z" />
</symbol>

<symbol  id="menu-icon" viewBox="0 0 24 16" >
<path  d="M0 2.66667V0H24V2.66667H0ZM0 9.33333H24V6.66667H0V9.33333ZM0 16H24V13.3333H0V16Z" />
</symbol>



</defs>
</svg>
